# xmcd
#
# Track frame offsets: 
#        150
#        1950
#        14480
#        29334
#        45332
#        58619
#        72687
#        84912
#        100524
#        117453
#        129688
#        147420
#        168894
#        184830
#        200693
#        216002
#        231514
#        244438
#        258683
#        270395
#        284730
#
# Disc length: 4007 seconds
#
# Revision: 0
# Processed by: cddbd v1.5.2PL0 Copyright (c) Steve Scherf et al.
# Submitted via: ExactAudioCopy v1.0b1
#
DISCID=3f0fa515
DTITLE=The BossHoss - Rodeo Radio
DYEAR=1900
DGENRE=
TTITLE0=The BossHoss - Intro 1
TTITLE1=The BossHoss - Rodeo Radio
TTITLE2=The BossHoss - Ring Ring Ring
TTITLE3=The BossHoss - My Favourite Game
TTITLE4=The BossHoss - I Say A Little Prayer
TTITLE5=The BossHoss - I'm On A High
TTITLE6=The BossHoss - Hell Yeah
TTITLE7=The BossHoss - Hot Stuff
TTITLE8=The BossHoss - Rodeo Queen
TTITLE9=The BossHoss - It's Not Unusual
TTITLE10=The BossHoss - Shake A Leg
TTITLE11=The BossHoss - Mary Marry Me
TTITLE12=The BossHoss - Jesus' Built My Hotrod
TTITLE13=The BossHoss - Upside Down
TTITLE14=The BossHoss - Ãa Plane Pour Moi
TTITLE15=The BossHoss - You'll Never Walk Alone
TTITLE16=The BossHoss - Yodle Blues
TTITLE17=The BossHoss - Come On Krupa
TTITLE18=The BossHoss - Jambalaya
TTITLE19=The BossHoss - Riding Home
TTITLE20=The BossHoss - Last Christmas
EXTD=
EXTT0=
EXTT1=
EXTT2=
EXTT3=
EXTT4=
EXTT5=
EXTT6=
EXTT7=
EXTT8=
EXTT9=
EXTT10=
EXTT11=
EXTT12=
EXTT13=
EXTT14=
EXTT15=
EXTT16=
EXTT17=
EXTT18=
EXTT19=
EXTT20=
PLAYORDER=
